<svg width="419" height="50" viewBox="0 0 419 50" fill="none" xmlns="http://www.w3.org/2000/svg">
<path d="M0 23.5074V41.4004C0 41.9281 0.621846 42.1975 0.995038 41.8315L4.86864 38.0325C5.55869 37.3557 5.94858 36.4221 5.94858 35.4464V21.2368C5.94858 20.9708 6.26386 20.837 6.44924 21.0244L14.735 29.3977C15.1752 29.8426 15.7702 30.0922 16.3903 30.0922H20.6069C20.7665 30.0922 20.9193 30.026 21.0301 29.9089L26.1059 24.5405C26.2856 24.3505 26.1534 24.0338 25.8943 24.0338H19.3276C18.7077 24.0338 18.1128 23.7843 17.6727 23.3397L9.83322 15.4204C9.647 15.2323 9.7778 14.9088 10.0401 14.9088H25.4229C26.8253 14.9088 28.1702 14.3414 29.1619 13.3315L32.9134 9.51073C33.0984 9.32226 32.9674 9 32.7057 9H14.3061C13.3747 9 12.4811 9.37543 11.8206 10.0443L1.03963 20.9616C0.37417 21.6354 0 22.5517 0 23.5074Z" fill="#061010"/>
<path d="M52.2961 36V13.032H69.5761V17.172H57.1201V22.356H67.9921V26.208H57.1201V36H52.2961ZM74.3911 36V13.032H79.2151V36H74.3911ZM85.5525 36V13.032H102.976V17.172H90.3765V22.536H101.428V26.316H90.3765V31.86H102.868V36H85.5525ZM108.175 36V13.032H112.999V31.86H124.735V36H108.175ZM128.864 36V13.032H140.276C142.124 13.032 143.792 13.308 145.28 13.86C146.768 14.412 148.028 15.192 149.06 16.2C150.092 17.184 150.884 18.384 151.436 19.8C152.012 21.216 152.3 22.788 152.3 24.516C152.3 26.268 152.012 27.852 151.436 29.268C150.884 30.684 150.092 31.896 149.06 32.904C148.028 33.888 146.768 34.656 145.28 35.208C143.792 35.736 142.124 36 140.276 36H128.864ZM133.688 31.86H140.168C141.224 31.86 142.196 31.716 143.084 31.428C143.972 31.14 144.74 30.696 145.388 30.096C146.036 29.472 146.54 28.704 146.9 27.792C147.26 26.88 147.44 25.788 147.44 24.516C147.44 23.268 147.26 22.188 146.9 21.276C146.54 20.34 146.036 19.572 145.388 18.972C144.74 18.372 143.972 17.928 143.084 17.64C142.196 17.328 141.224 17.172 140.168 17.172H133.688V31.86ZM170.144 20.52C170.144 19.944 170.012 19.428 169.748 18.972C169.508 18.516 169.184 18.132 168.776 17.82C168.368 17.484 167.888 17.232 167.336 17.064C166.808 16.872 166.244 16.764 165.644 16.74C165.14 16.74 164.612 16.776 164.06 16.848C163.532 16.896 163.052 17.004 162.62 17.172C162.188 17.34 161.828 17.592 161.54 17.928C161.276 18.24 161.144 18.672 161.144 19.224C161.144 19.728 161.276 20.148 161.54 20.484C161.828 20.82 162.2 21.108 162.656 21.348C163.136 21.564 163.652 21.756 164.204 21.924C164.78 22.068 165.356 22.2 165.932 22.32C166.916 22.512 167.96 22.752 169.064 23.04C170.168 23.328 171.176 23.748 172.088 24.3C173.024 24.828 173.792 25.524 174.392 26.388C174.992 27.252 175.292 28.356 175.292 29.7C175.292 30.972 175.016 32.04 174.464 32.904C173.936 33.744 173.216 34.428 172.304 34.956C171.392 35.484 170.348 35.868 169.172 36.108C168.02 36.348 166.82 36.468 165.572 36.468C164.276 36.492 163.04 36.36 161.864 36.072C160.688 35.784 159.632 35.34 158.696 34.74C157.784 34.116 157.04 33.348 156.464 32.436C155.888 31.5 155.564 30.396 155.492 29.124L160.352 28.548C160.424 29.124 160.592 29.652 160.856 30.132C161.144 30.612 161.516 31.032 161.972 31.392C162.428 31.728 162.956 31.992 163.556 32.184C164.18 32.352 164.852 32.436 165.572 32.436C166.052 32.436 166.568 32.4 167.12 32.328C167.672 32.256 168.176 32.124 168.632 31.932C169.112 31.74 169.496 31.476 169.784 31.14C170.096 30.804 170.252 30.36 170.252 29.808C170.252 29.208 170.036 28.716 169.604 28.332C169.172 27.948 168.644 27.636 168.02 27.396C167.396 27.156 166.7 26.964 165.932 26.82C165.188 26.676 164.492 26.52 163.844 26.352C162.932 26.16 162.008 25.908 161.072 25.596C160.16 25.26 159.332 24.828 158.588 24.3C157.844 23.772 157.232 23.1 156.752 22.284C156.296 21.468 156.068 20.46 156.068 19.26C156.068 18.012 156.368 16.968 156.968 16.128C157.568 15.264 158.336 14.58 159.272 14.076C160.208 13.572 161.252 13.212 162.404 12.996C163.556 12.78 164.66 12.684 165.716 12.708C166.892 12.708 168.032 12.864 169.136 13.176C170.24 13.488 171.224 13.956 172.088 14.58C172.952 15.18 173.636 15.948 174.14 16.884C174.668 17.796 174.932 18.888 174.932 20.16L170.144 20.52ZM180.19 36V13.032H197.614V17.172H185.014V22.536H196.066V26.316H185.014V31.86H197.506V36H180.19ZM223.513 36H217.969C217.513 35.76 217.165 35.388 216.925 34.884C216.685 34.356 216.445 33.78 216.205 33.156C215.749 32.028 215.329 31.14 214.945 30.492C214.561 29.82 214.189 29.316 213.829 28.98C213.493 28.644 213.157 28.428 212.821 28.332C212.485 28.236 212.125 28.188 211.741 28.188H207.637V36H202.813V13.032H213.541C214.861 13.032 216.061 13.164 217.141 13.428C218.245 13.692 219.181 14.1 219.949 14.652C220.717 15.204 221.317 15.924 221.749 16.812C222.181 17.7 222.397 18.78 222.397 20.052C222.397 20.916 222.265 21.744 222.001 22.536C221.737 23.304 221.353 24 220.849 24.624C220.369 25.224 219.769 25.704 219.049 26.064C218.353 26.424 217.561 26.616 216.673 26.64C217.369 26.76 217.957 27 218.437 27.36C218.917 27.72 219.337 28.176 219.697 28.728C220.057 29.256 220.369 29.856 220.633 30.528C220.897 31.2 221.173 31.908 221.461 32.652C221.629 33.084 221.857 33.624 222.145 34.272C222.457 34.92 222.913 35.496 223.513 36ZM207.637 24.228H212.425C213.169 24.228 213.853 24.18 214.477 24.084C215.125 23.964 215.677 23.772 216.133 23.508C216.589 23.22 216.937 22.836 217.177 22.356C217.441 21.876 217.573 21.252 217.573 20.484C217.573 19.764 217.453 19.188 217.213 18.756C216.973 18.324 216.637 17.988 216.205 17.748C215.773 17.508 215.233 17.352 214.585 17.28C213.961 17.184 213.253 17.136 212.461 17.136H207.637V24.228ZM232.012 36L224.524 13.032H229.528L236.332 33.3L243.172 13.032H248.14L240.652 36H232.012ZM251.116 36V13.032H255.94V36H251.116ZM265.553 24.444C265.577 25.5 265.769 26.496 266.129 27.432C266.489 28.368 266.993 29.184 267.641 29.88C268.313 30.552 269.117 31.092 270.053 31.5C271.013 31.884 272.081 32.076 273.257 32.076C275.033 32.076 276.521 31.704 277.721 30.96C278.921 30.216 279.773 29.124 280.277 27.684L284.777 28.296C284.561 29.568 284.129 30.708 283.481 31.716C282.833 32.724 281.993 33.576 280.961 34.272C279.953 34.944 278.789 35.46 277.469 35.82C276.173 36.18 274.745 36.36 273.185 36.36C271.313 36.36 269.609 36.084 268.073 35.532C266.537 34.956 265.217 34.152 264.113 33.12C263.033 32.064 262.193 30.804 261.593 29.34C261.017 27.876 260.729 26.244 260.729 24.444C260.753 22.812 261.065 21.288 261.665 19.872C262.265 18.432 263.117 17.184 264.221 16.128C265.325 15.048 266.645 14.208 268.181 13.608C269.717 12.984 271.445 12.672 273.365 12.672C274.877 12.672 276.281 12.852 277.577 13.212C278.897 13.572 280.049 14.1 281.033 14.796C282.041 15.468 282.869 16.308 283.517 17.316C284.165 18.324 284.585 19.464 284.777 20.736L280.277 21.348C279.797 19.908 278.933 18.816 277.685 18.072C276.461 17.328 274.901 16.956 273.005 16.956C271.853 16.956 270.821 17.148 269.909 17.532C268.997 17.892 268.217 18.408 267.569 19.08C266.921 19.752 266.417 20.544 266.057 21.456C265.721 22.368 265.553 23.364 265.553 24.444ZM289.47 36V13.032H306.894V17.172H294.294V22.536H305.346V26.316H294.294V31.86H306.786V36H289.47ZM321.531 36V13.032H331.935C333.111 13.032 334.251 13.164 335.355 13.428C336.483 13.692 337.479 14.124 338.343 14.724C339.207 15.324 339.903 16.116 340.431 17.1C340.959 18.084 341.223 19.296 341.223 20.736C341.223 22.2 340.983 23.448 340.503 24.48C340.023 25.512 339.363 26.352 338.523 27C337.707 27.648 336.747 28.128 335.643 28.44C334.563 28.728 333.411 28.872 332.187 28.872H326.355V36H321.531ZM326.355 24.948H331.791C332.367 24.948 332.931 24.888 333.483 24.768C334.035 24.648 334.527 24.444 334.959 24.156C335.391 23.844 335.727 23.424 335.967 22.896C336.231 22.368 336.363 21.696 336.363 20.88C336.363 20.04 336.231 19.38 335.967 18.9C335.703 18.396 335.343 18.024 334.887 17.784C334.431 17.52 333.927 17.352 333.375 17.28C332.847 17.208 332.319 17.172 331.791 17.172H326.355V24.948ZM366.435 36H360.891C360.435 35.76 360.087 35.388 359.847 34.884C359.607 34.356 359.367 33.78 359.127 33.156C358.671 32.028 358.251 31.14 357.867 30.492C357.483 29.82 357.111 29.316 356.751 28.98C356.415 28.644 356.079 28.428 355.743 28.332C355.407 28.236 355.047 28.188 354.663 28.188H350.559V36H345.735V13.032H356.463C357.783 13.032 358.983 13.164 360.063 13.428C361.167 13.692 362.103 14.1 362.871 14.652C363.639 15.204 364.239 15.924 364.671 16.812C365.103 17.7 365.319 18.78 365.319 20.052C365.319 20.916 365.187 21.744 364.923 22.536C364.659 23.304 364.275 24 363.771 24.624C363.291 25.224 362.691 25.704 361.971 26.064C361.275 26.424 360.483 26.616 359.595 26.64C360.291 26.76 360.879 27 361.359 27.36C361.839 27.72 362.259 28.176 362.619 28.728C362.979 29.256 363.291 29.856 363.555 30.528C363.819 31.2 364.095 31.908 364.383 32.652C364.551 33.084 364.779 33.624 365.067 34.272C365.379 34.92 365.835 35.496 366.435 36ZM350.559 24.228H355.347C356.091 24.228 356.775 24.18 357.399 24.084C358.047 23.964 358.599 23.772 359.055 23.508C359.511 23.22 359.859 22.836 360.099 22.356C360.363 21.876 360.495 21.252 360.495 20.484C360.495 19.764 360.375 19.188 360.135 18.756C359.895 18.324 359.559 17.988 359.127 17.748C358.695 17.508 358.155 17.352 357.507 17.28C356.883 17.184 356.175 17.136 355.383 17.136H350.559V24.228ZM368.814 24.516C368.814 22.74 369.15 21.132 369.822 19.692C370.494 18.228 371.406 16.98 372.558 15.948C373.71 14.916 375.054 14.112 376.59 13.536C378.126 12.96 379.758 12.672 381.486 12.672C383.214 12.672 384.834 12.96 386.346 13.536C387.882 14.088 389.214 14.892 390.342 15.948C391.494 16.98 392.406 18.228 393.078 19.692C393.75 21.132 394.086 22.74 394.086 24.516C394.086 26.292 393.75 27.912 393.078 29.376C392.43 30.816 391.53 32.064 390.378 33.12C389.226 34.152 387.882 34.956 386.346 35.532C384.834 36.084 383.214 36.36 381.486 36.36C379.758 36.36 378.126 36.072 376.59 35.496C375.054 34.92 373.71 34.116 372.558 33.084C371.406 32.052 370.494 30.816 369.822 29.376C369.15 27.912 368.814 26.292 368.814 24.516ZM381.486 32.184C382.59 32.184 383.61 31.992 384.546 31.608C385.506 31.224 386.322 30.696 386.994 30.024C387.69 29.328 388.23 28.512 388.614 27.576C389.022 26.64 389.226 25.62 389.226 24.516C389.226 23.436 389.022 22.428 388.614 21.492C388.23 20.532 387.69 19.704 386.994 19.008C386.322 18.312 385.506 17.772 384.546 17.388C383.61 17.004 382.59 16.812 381.486 16.812C380.382 16.812 379.35 17.004 378.39 17.388C377.454 17.772 376.626 18.312 375.906 19.008C375.21 19.704 374.658 20.52 374.25 21.456C373.866 22.392 373.674 23.412 373.674 24.516C373.674 25.62 373.866 26.64 374.25 27.576C374.658 28.512 375.21 29.328 375.906 30.024C376.626 30.696 377.454 31.224 378.39 31.608C379.35 31.992 380.382 32.184 381.486 32.184ZM411.993 20.52C411.993 19.944 411.861 19.428 411.597 18.972C411.357 18.516 411.033 18.132 410.625 17.82C410.217 17.484 409.737 17.232 409.185 17.064C408.657 16.872 408.093 16.764 407.493 16.74C406.989 16.74 406.461 16.776 405.909 16.848C405.381 16.896 404.901 17.004 404.469 17.172C404.037 17.34 403.677 17.592 403.389 17.928C403.125 18.24 402.993 18.672 402.993 19.224C402.993 19.728 403.125 20.148 403.389 20.484C403.677 20.82 404.049 21.108 404.505 21.348C404.985 21.564 405.501 21.756 406.053 21.924C406.629 22.068 407.205 22.2 407.781 22.32C408.765 22.512 409.809 22.752 410.913 23.04C412.017 23.328 413.025 23.744 413.937 24.3C414.873 24.828 415.641 25.524 416.241 26.388C416.841 27.252 417.141 28.356 417.141 29.7C417.141 30.972 416.865 32.04 416.313 32.904C415.785 33.744 415.065 34.428 414.153 34.956C413.241 35.484 412.197 35.868 411.021 36.108C409.869 36.348 408.669 36.468 407.421 36.468C406.125 36.492 404.889 36.36 403.713 36.072C402.537 35.784 401.481 35.34 400.545 34.74C399.633 34.116 398.889 33.348 398.313 32.436C397.737 31.5 397.413 30.396 397.341 29.124L402.201 28.548C402.273 29.124 402.441 29.652 402.705 30.132C402.993 30.612 403.365 31.032 403.821 31.392C404.277 31.728 404.805 31.992 405.405 32.184C406.029 32.352 406.701 32.436 407.421 32.436C407.901 32.436 408.417 32.4 408.969 32.328C409.521 32.256 410.025 32.124 410.481 31.932C410.961 31.74 411.345 31.476 411.633 31.14C411.945 30.804 412.101 30.36 412.101 29.808C412.101 29.208 411.885 28.716 411.453 28.332C411.021 27.948 410.493 27.636 409.869 27.396C409.245 27.156 408.549 26.964 407.781 26.82C407.037 26.676 406.341 26.52 405.693 26.352C404.781 26.16 403.857 25.908 402.921 25.596C402.009 25.26 401.181 24.828 400.437 24.3C399.693 23.772 399.081 23.1 398.601 22.284C398.145 21.468 397.917 20.46 397.917 19.26C397.917 18.012 398.217 16.968 398.817 16.128C399.417 15.264 400.185 14.58 401.121 14.076C402.057 13.572 403.101 13.212 404.253 12.996C405.405 12.78 406.509 12.684 407.565 12.708C408.741 12.708 409.881 12.864 410.985 13.176C412.089 13.488 413.073 13.956 413.937 14.58C414.801 15.18 415.485 15.948 415.989 16.884C416.517 17.796 416.781 18.888 416.781 20.16L411.993 20.52Z" fill="#061010"/>
</svg>
